<svg viewBox="0 0 100 62" xmlns="http://www.w3.org/2000/svg" xml:space="preserve" style="fill-rule:evenodd;clip-rule:evenodd;stroke-linejoin:round;stroke-miterlimit:2"><path style="fill:none" d="M699.524 1293.79h594.387v337.743H699.524z" transform="matrix(.16824 0 0 .18357 -117.688 -237.502)"/><path d="M111.39 264.963a123.464 123.464 0 0 0-3.838-3.41 141.132 141.132 0 0 0-38.616-23.468 7.357 7.357 0 0 0-6.699.167 7.364 7.364 0 0 0-3.792 5.522c-2.821 14.754-3.28 29.948-1.287 45.15.224 1.718.482 3.433.776 5.145a134.731 134.731 0 0 0-5.125-1.191 141.17 141.17 0 0 0-45.136-2.165 7.364 7.364 0 0 0-5.805 3.35 7.36 7.36 0 0 0-.692 6.665c4.57 14.309 11.427 27.873 20.444 40.277a128.857 128.857 0 0 0 15.057 17.289c16.943 16.609 38.755 25.649 60.965 29.29 8.955 1.434 17.799 1.942 26.731 1.908 5.828-.023 11.616-.097 17.379-.692 5.766.59 11.554.663 17.379.68 8.929.026 17.774-.493 26.723-1.939 23.628-3.716 44.32-13.443 61.007-29.242a126.632 126.632 0 0 0 15.074-17.288 141.24 141.24 0 0 0 20.356-40.346 7.37 7.37 0 0 0-.694-6.664 7.37 7.37 0 0 0-5.809-3.345c-14.93-1.653-30.109-.913-45.11 2.273-1.667.352-3.325.737-4.981 1.157.292-1.704.55-3.407.771-5.114a141.053 141.053 0 0 0-1.363-45.167 7.365 7.365 0 0 0-10.488-5.698c-13.91 5.675-26.898 13.567-38.56 23.525a133.475 133.475 0 0 0-3.824 3.393 135.3 135.3 0 0 0-1.763-4.864 141.197 141.197 0 0 0-22.751-39.042 7.371 7.371 0 0 0-11.937 0c-9.516 11.622-17.163 24.758-22.663 39.07a139.728 139.728 0 0 0-1.729 4.774Zm-50.899 40.776c-17.067-6.08-34.891-8.563-52.443-7.668 9.972 25.807 27.861 48.813 52.818 65.005 22.203 14.405 47.055 21.503 71.719 21.9-2.801-1.392-5.565-2.863-8.334-4.357-7.86-4.238-15.389-8.909-22.569-14.448-7.169-5.533-13.816-11.673-19.863-18.74-3.946-4.617-7.367-9.694-10.695-14.958-3.589-6.925-6.707-13.955-9-21.164a123.837 123.837 0 0 1-1.633-5.57Zm90.437 79.234c24.664-.411 49.507-7.523 71.699-21.934 24.948-16.2 42.829-39.218 52.79-65.027-17.49-.884-35.246 1.585-52.257 7.628a124.585 124.585 0 0 1-1.689 5.72c-2.316 7.2-5.474 14.216-9.097 21.124-3.333 5.261-6.76 10.332-10.706 14.947-6.046 7.064-12.691 13.204-19.857 18.734-7.177 5.542-14.703 10.219-22.561 14.457-2.763 1.491-5.524 2.962-8.322 4.351Zm-20.268-18.312c3.089 6.239 6.944 12.332 11.092 18.156 33.773-47.635 34.298-111.638 0-159.378-30.08 41.641-33.529 96.111-11.092 141.222Zm19.23 13.913c21.481-12.13 39.921-30.232 52.546-53.487 13.715-25.104 18.811-53.571 15.364-82.335-15.792 7.568-30.22 18.21-42.284 31.637.459 1.928.875 3.872 1.244 5.834 1.4 7.432 1.973 15.106 2.086 22.904-.419 6.213-1.012 12.305-2.279 18.244-1.941 9.093-4.853 17.66-8.509 25.942-3.666 8.292-8.045 15.993-12.929 23.468-1.718 2.628-3.441 5.239-5.239 7.793Zm-41.825-104.151c-12.064-13.45-26.504-24.114-42.313-31.697-7.244 55.97 21.818 109.187 67.856 135.842-1.794-2.551-3.52-5.159-5.238-7.787-4.887-7.475-9.278-15.168-12.946-23.462-3.665-8.28-6.582-16.849-8.524-25.943-1.267-5.941-1.854-12.033-2.268-18.249.148-7.798.76-15.463 2.18-22.893.374-1.956.791-3.892 1.253-5.811Z" style="fill:#001a4a" transform="translate(.02 -76.645) scale(.3527)"/></svg>